<?xml version="1.0" encoding="UTF-8" standalone="no"?>
<!-- Created with Inkscape (http://www.inkscape.org/) -->

<svg
   xmlns:dc="http://purl.org/dc/elements/1.1/"
   xmlns:cc="http://creativecommons.org/ns#"
   xmlns:rdf="http://www.w3.org/1999/02/22-rdf-syntax-ns#"
   xmlns:svg="http://www.w3.org/2000/svg"
   xmlns="http://www.w3.org/2000/svg"
   xmlns:sodipodi="http://sodipodi.sourceforge.net/DTD/sodipodi-0.dtd"
   xmlns:inkscape="http://www.inkscape.org/namespaces/inkscape"
   width="128"
   height="128"
   id="svg3540"
   version="1.1"
   inkscape:version="0.48.3.1 r9886"
   sodipodi:docname="logo.svg"
   inkscape:export-filename="/home/toon/unief/research/code/toon/hipart/doc/logo.png"
   inkscape:export-xdpi="90"
   inkscape:export-ydpi="90">
  <defs
     id="defs3542" />
  <sodipodi:namedview
     id="base"
     pagecolor="#ffffff"
     bordercolor="#666666"
     borderopacity="1.0"
     inkscape:pageopacity="0"
     inkscape:pageshadow="2"
     inkscape:zoom="5.671875"
     inkscape:cx="64"
     inkscape:cy="64"
     inkscape:document-units="px"
     inkscape:current-layer="layer1"
     showgrid="false"
     units="px"
     fit-margin-top="0.5"
     fit-margin-left="0.5"
     fit-margin-bottom="0.5"
     fit-margin-right="0.5"
     inkscape:window-width="1215"
     inkscape:window-height="1000"
     inkscape:window-x="65"
     inkscape:window-y="24"
     inkscape:window-maximized="1" />
  <metadata
     id="metadata3545">
    <rdf:RDF>
      <cc:Work
         rdf:about="">
        <dc:format>image/svg+xml</dc:format>
        <dc:type
           rdf:resource="http://purl.org/dc/dcmitype/StillImage" />
        <dc:title></dc:title>
      </cc:Work>
    </rdf:RDF>
  </metadata>
  <g
     inkscape:label="Layer 1"
     inkscape:groupmode="layer"
     id="layer1"
     transform="translate(-319.43916,-459.19168)">
    <g
       id="g4431"
       transform="matrix(1.6827017,0,0,1.6827017,-247.57398,-372.61509)">
      <g
         transform="matrix(1.0905125,1.9356875,1.9356875,-1.0905125,-42.655909,1207.1971)"
         id="g3079">
        <path
           id="path3081"
           style="fill:none;stroke:#231f20;stroke-width:0.4402;stroke-linecap:butt;stroke-linejoin:miter;stroke-miterlimit:22.92558479;stroke-opacity:1;stroke-dasharray:none"
           d="m -172.0981,320.5015 4.7457,4.2967"
           inkscape:connector-curvature="0" />
      </g>
      <g
         transform="matrix(1.7758875,1.335025,1.335025,-1.7758875,-42.655909,1207.1971)"
         id="g3083">
        <path
           id="path3085"
           style="fill:#f4f1e4;fill-opacity:1;fill-rule:evenodd;stroke:#231f20;stroke-width:0.35229999;stroke-linecap:butt;stroke-linejoin:miter;stroke-miterlimit:22.92558479;stroke-opacity:1;stroke-dasharray:none"
           d="m -21.5986,368.0249 c 1.3675,3e-4 2.4764,-1.1435 2.4764,-2.5538 0,-1.4102 -1.1089,-2.5537 -2.4764,-2.5537 -1.3674,0 -2.4766,1.1435 -2.4763,2.554 0,1.41 1.1089,2.5535 2.4763,2.5535 z"
           inkscape:connector-curvature="0" />
      </g>
      <g
         transform="matrix(-0.7462875,1.1614,-1.1614,-0.7462875,-42.655909,1207.1971)"
         id="g3091">
        <path
           id="path3093"
           style="fill:none;stroke:#231f20;stroke-width:0.7087;stroke-linecap:round;stroke-linejoin:miter;stroke-miterlimit:22.92558479;stroke-opacity:1;stroke-dasharray:none"
           d="m -580.3296,6.7944 4.7287,1.3337"
           inkscape:connector-curvature="0" />
      </g>
      <g
         transform="matrix(-0.7462875,1.1614,-1.1614,-0.7462875,-42.655909,1207.1971)"
         id="g3095">
        <path
           id="path3097"
           style="fill:none;stroke:#231f20;stroke-width:0.7087;stroke-linecap:round;stroke-linejoin:miter;stroke-miterlimit:22.92558479;stroke-opacity:1;stroke-dasharray:none"
           d="m -580.9181,8.5113 4.729,1.334"
           inkscape:connector-curvature="0" />
      </g>
      <path
         id="path3099"
         style="fill:#1379c8;fill-opacity:1;fill-rule:evenodd;stroke:none"
         d="m 396.96534,563.11071 c 0.84125,0.6905 0.86962,2.37925 0.359,3.1755 -0.71363,1.11225 -2.06113,1.48675 -3.111,0.625 l -0.34588,-0.28412 c -2.2355,-1.8355 0.62863,-5.54425 2.7205,-3.8265 l 0.37738,0.31012 z m 8.53762,-14.43825 c 1.07325,-1.30687 4.06425,-0.47912 4.20275,1.553 0.141,2.0685 -2.66887,3.07913 -3.938,2.037 l -0.34587,-0.28412 c -0.82563,-0.67788 -0.93225,-2.07175 -0.41,-2.70788 l 0.49112,-0.598 z m 4.73138,-1.01625 -0.75475,-0.61975 c -1.18088,-0.9695 -3.22788,-0.97225 -4.39938,-0.31925 -2.58762,1.44288 -1.69187,3.6985 -2.0795,4.169 l -0.0184,0.11338 -7.21462,-1.16325 -0.009,0.0571 c -0.13925,-0.14288 -2.24725,-7.959 -2.51613,-8.9805 -0.38412,-1.46025 -0.74912,-3.17763 -1.39462,-4.46213 -0.39438,-0.7855 -1.07938,-1.6105 -1.83513,-2.11112 -0.44925,-0.298 -2.06962,-0.93225 -2.39987,-0.7065 l 4.079,16.04337 -16.70388,-0.923 c -0.0651,0.462 0.79088,1.86163 1.29838,2.27825 l 0.56612,0.46488 c 1.73313,1.423 5.90325,1.2835 7.95725,1.501 1.06975,0.11337 7.54475,0.42837 7.86763,0.584 0.10975,0.11262 0.57212,2.02637 0.78125,2.49762 0.337,0.76113 0.7065,1.771 0.98437,2.5065 0.19488,0.51663 1.18913,2.20013 0.25363,2.31238 -0.8695,0.1045 -1.86025,0.37875 -2.49338,1.1495 l -0.33525,0.40812 c -1.22662,1.49388 -0.57362,4.32463 0.82525,5.473 l 0.53475,0.439 c 1.40588,1.15475 3.91675,1.00213 5.05375,-0.38225 l 0.46525,-0.56662 c 0.8685,-1.058 0.86988,-3.18963 0.24975,-4.27713 -0.58137,-1.01975 -1.81762,-3.0405 -2.14475,-4.04112 -0.568,-1.73838 -0.67887,-2.40913 -0.7515,-4.17863 -0.0152,-0.36962 0.0521,-0.8175 0.022,-1.0725 -0.0722,-0.6085 -0.004,-0.55425 0.56588,-0.66262 0.766,-0.146 1.24362,-0.32525 2.10187,-0.39688 1.57563,-0.13187 3.00475,0.062 4.298,0.46875 0.93125,0.29275 3.54363,1.22313 4.364,1.142 1.68863,-0.16687 3.03475,-0.86737 3.71863,-2.55537 0.562,-1.38725 0.3395,-3.1415 -0.9365,-4.18925"
         inkscape:connector-curvature="0" />
      <g
         transform="matrix(-1.0818375,-1.94055,1.94055,-1.0818375,-42.655909,1207.1971)"
         id="g3101">
        <path
           id="path3103"
           style="fill:#393536;fill-opacity:1;fill-rule:evenodd;stroke:#231f20;stroke-width:0.35229999;stroke-linecap:butt;stroke-linejoin:miter;stroke-miterlimit:22.92558479;stroke-opacity:1;stroke-dasharray:none"
           d="m 174.8203,320.7923 c 1.3674,0 2.4763,-1.1432 2.4763,-2.5537 0,-1.41 -1.1089,-2.5537 -2.4763,-2.5535 -1.3675,0 -2.4764,1.1432 -2.4764,2.5538 0,1.4099 1.1089,2.5537 2.4764,2.5534 z"
           inkscape:connector-curvature="0" />
      </g>
      <g
         transform="matrix(-1.7699,-1.3429625,1.3429625,-1.7699,-42.655909,1207.1971)"
         id="g3105">
        <path
           id="path3107"
           style="fill:none;stroke:#231f20;stroke-width:0.4402;stroke-linecap:butt;stroke-linejoin:miter;stroke-miterlimit:22.92558479;stroke-opacity:1;stroke-dasharray:none"
           d="m 34.1124,363.2315 4.7458,4.2968"
           inkscape:connector-curvature="0" />
      </g>
      <g
         transform="matrix(1.2518875,-0.581875,-0.581875,-1.2518875,-42.655909,1207.1971)"
         id="g3109">
        <path
           id="path3111"
           style="fill:none;stroke:#2c73c3;stroke-width:0.7087;stroke-linecap:round;stroke-linejoin:miter;stroke-miterlimit:22.92558479;stroke-opacity:1;stroke-dasharray:1.42, 2.13;stroke-dashoffset:0"
           d="m 477.1176,325.1276 8.2052,-24.3428"
           inkscape:connector-curvature="0" />
      </g>
      <g
         transform="matrix(-1.0818375,-1.94055,1.94055,-1.0818375,-42.655909,1207.1971)"
         id="g3113">
        <path
           id="path3115"
           style="fill:#f4f1e4;fill-opacity:1;fill-rule:evenodd;stroke:#231f20;stroke-width:0.35229999;stroke-linecap:butt;stroke-linejoin:miter;stroke-miterlimit:22.92558479;stroke-opacity:1;stroke-dasharray:none"
           d="m 184.4184,324.3719 c 1.3677,0 2.4766,-1.1432 2.4763,-2.5534 3e-4,-1.4103 -1.1089,-2.5538 -2.4763,-2.5538 -1.3675,0 -2.4764,1.1435 -2.4764,2.5538 0,1.4102 1.1089,2.5534 2.4764,2.5534 z"
           inkscape:connector-curvature="0" />
      </g>
      <g
         transform="matrix(1.7699,1.3429625,-1.3429625,1.7699,-42.655909,1207.1971)"
         id="g3117">
        <path
           id="path3119"
           style="fill:none;stroke:#231f20;stroke-width:0.4402;stroke-linecap:butt;stroke-linejoin:miter;stroke-miterlimit:22.92558479;stroke-opacity:1;stroke-dasharray:none"
           d="m -33.5798,-347.9723 4.7458,4.2967"
           inkscape:connector-curvature="0" />
      </g>
      <g
         transform="matrix(1.0818375,1.94055,-1.94055,1.0818375,-42.655909,1207.1971)"
         id="g3121">
        <path
           id="path3123"
           style="fill:#f4f1e4;fill-opacity:1;fill-rule:evenodd;stroke:#231f20;stroke-width:0.35229999;stroke-linecap:butt;stroke-linejoin:miter;stroke-miterlimit:22.92558479;stroke-opacity:1;stroke-dasharray:none"
           d="m -163.1083,-299.8216 c 1.3674,-3e-4 2.4763,-1.1438 2.4763,-2.554 0,-1.4103 -1.1089,-2.5538 -2.4763,-2.5538 -1.3675,0 -2.4764,1.1435 -2.4764,2.5538 0,1.4102 1.1089,2.554 2.4764,2.554 z"
           inkscape:connector-curvature="0" />
      </g>
      <g
         transform="matrix(1.2518875,-0.581875,-0.581875,-1.2518875,-42.655909,1207.1971)"
         id="g3125">
        <path
           id="path3127"
           style="fill:none;stroke:#231f20;stroke-width:0.7087;stroke-linecap:round;stroke-linejoin:miter;stroke-miterlimit:22.92558479;stroke-opacity:1;stroke-dasharray:none"
           d="m 474.8536,312.8261 4.7288,1.3337"
           inkscape:connector-curvature="0" />
      </g>
      <g
         transform="matrix(1.2518875,-0.581875,-0.581875,-1.2518875,-42.655909,1207.1971)"
         id="g3129">
        <path
           id="path3131"
           style="fill:none;stroke:#231f20;stroke-width:0.7087;stroke-linecap:round;stroke-linejoin:miter;stroke-miterlimit:22.92558479;stroke-opacity:1;stroke-dasharray:none"
           d="m 474.2654,314.5433 4.7288,1.3335"
           inkscape:connector-curvature="0" />
      </g>
      <g
         transform="matrix(-1.7758875,-1.335025,-1.335025,1.7758875,-42.655909,1207.1971)"
         id="g3133">
        <path
           id="path3135"
           style="fill:#393536;fill-opacity:1;fill-rule:evenodd;stroke:#231f20;stroke-width:0.35229999;stroke-linecap:butt;stroke-linejoin:miter;stroke-miterlimit:22.92558479;stroke-opacity:1;stroke-dasharray:none"
           d="m 33.3105,-347.0542 c 1.3674,-3e-4 2.4766,-1.1438 2.4763,-2.554 0,-1.4102 -1.1086,-2.5537 -2.4763,-2.5537 -1.3672,0 -2.4764,1.1435 -2.4764,2.5537 0,1.4102 1.109,2.5537 2.4764,2.554 z"
           inkscape:connector-curvature="0" />
      </g>
      <g
         transform="matrix(-1.0905125,-1.9356875,-1.9356875,1.0905125,-42.655909,1207.1971)"
         id="g3137">
        <path
           id="path3139"
           style="fill:none;stroke:#231f20;stroke-width:0.4402;stroke-linecap:butt;stroke-linejoin:miter;stroke-miterlimit:22.92558479;stroke-opacity:1;stroke-dasharray:none"
           d="m 172.6308,-305.2423 4.7457,4.2968"
           inkscape:connector-curvature="0" />
      </g>
      <g
         transform="matrix(-1.7758875,-1.335025,-1.335025,1.7758875,-42.655909,1207.1971)"
         id="g3141">
        <path
           id="path3143"
           style="fill:#f4f1e4;fill-opacity:1;fill-rule:evenodd;stroke:#231f20;stroke-width:0.35229999;stroke-linecap:butt;stroke-linejoin:miter;stroke-miterlimit:22.92558479;stroke-opacity:1;stroke-dasharray:none"
           d="m 42.9089,-343.4746 c 1.3674,0 2.4763,-1.1435 2.4763,-2.5537 0,-1.4103 -1.1089,-2.5537 -2.4763,-2.5537 -1.3675,0 -2.4764,1.1432 -2.4764,2.5537 0,1.4099 1.1089,2.5537 2.4764,2.5537 z"
           inkscape:connector-curvature="0" />
      </g>
    </g>
  </g>
</svg>
